<svg width="1250" height="1250" xmlns="http://www.w3.org/2000/svg">
<!-- Print Edges -->
<line x1="275" y1="25" x2="25" y2="25" stroke="#f7c743" stroke-width="4" />
<line x1="1025" y1="25" x2="775" y2="25" stroke="#f88f13" stroke-width="4" />
<line x1="1025" y1="275" x2="25" y2="275" stroke="#580ba2" stroke-width="4" />
<line x1="25" y1="525" x2="275" y2="25" stroke="#3cfc00" stroke-width="4" />
<line x1="275" y1="525" x2="275" y2="275" stroke="#598fd7" stroke-width="4" />
<line x1="275" y1="525" x2="25" y2="525" stroke="#33b5dd" stroke-width="4" />
<line x1="525" y1="525" x2="25" y2="25" stroke="#069bde" stroke-width="4" />
<line x1="775" y1="525" x2="775" y2="25" stroke="#7f10f2" stroke-width="4" />
<line x1="775" y1="525" x2="25" y2="275" stroke="#b8961c" stroke-width="4" />
<line x1="775" y1="525" x2="275" y2="275" stroke="#16b697" stroke-width="4" />
<line x1="775" y1="525" x2="525" y2="525" stroke="#61b0f3" stroke-width="4" />
<line x1="1025" y1="525" x2="525" y2="275" stroke="#08dd13" stroke-width="4" />
<line x1="1025" y1="525" x2="775" y2="275" stroke="#7f844a" stroke-width="4" />
<line x1="25" y1="775" x2="275" y2="25" stroke="#67f605" stroke-width="4" />
<line x1="25" y1="775" x2="1025" y2="25" stroke="#4e0658" stroke-width="4" />
<line x1="25" y1="775" x2="775" y2="525" stroke="#63f226" stroke-width="4" />
<line x1="275" y1="775" x2="275" y2="25" stroke="#141755" stroke-width="4" />
<line x1="275" y1="775" x2="25" y2="275" stroke="#b96645" stroke-width="4" />
<line x1="525" y1="775" x2="775" y2="25" stroke="#a291e3" stroke-width="4" />
<line x1="525" y1="775" x2="1025" y2="25" stroke="#fa3fc8" stroke-width="4" />
<line x1="525" y1="775" x2="275" y2="275" stroke="#53b247" stroke-width="4" />
<line x1="525" y1="775" x2="525" y2="275" stroke="#5fbe1d" stroke-width="4" />
<line x1="525" y1="775" x2="775" y2="275" stroke="#3b25ca" stroke-width="4" />
<line x1="525" y1="775" x2="1025" y2="525" stroke="#22f4da" stroke-width="4" />
<line x1="775" y1="775" x2="1025" y2="525" stroke="#4425dc" stroke-width="4" />
<line x1="1025" y1="775" x2="275" y2="275" stroke="#95fc85" stroke-width="4" />
<line x1="1025" y1="775" x2="775" y2="275" stroke="#5e63d6" stroke-width="4" />
<line x1="1025" y1="775" x2="525" y2="775" stroke="#699b31" stroke-width="4" />
<line x1="275" y1="1025" x2="275" y2="775" stroke="#1ebd5f" stroke-width="4" />
<line x1="275" y1="1025" x2="525" y2="775" stroke="#ec1c77" stroke-width="4" />
<line x1="775" y1="1025" x2="775" y2="25" stroke="#53e6e8" stroke-width="4" />
<line x1="775" y1="1025" x2="25" y2="275" stroke="#1f747c" stroke-width="4" />
<line x1="775" y1="1025" x2="525" y2="275" stroke="#808ec3" stroke-width="4" />
<line x1="775" y1="1025" x2="25" y2="525" stroke="#f618f6" stroke-width="4" />
<line x1="775" y1="1025" x2="275" y2="525" stroke="#3eaeb1" stroke-width="4" />
<line x1="775" y1="1025" x2="525" y2="525" stroke="#221075" stroke-width="4" />
<line x1="775" y1="1025" x2="25" y2="1025" stroke="#edff05" stroke-width="4" />
<line x1="775" y1="1025" x2="525" y2="1025" stroke="#32225c" stroke-width="4" />
<line x1="1025" y1="1025" x2="275" y2="25" stroke="#40ccad" stroke-width="4" />
<line x1="1025" y1="1025" x2="525" y2="25" stroke="#ee304a" stroke-width="4" />
<line x1="1025" y1="1025" x2="275" y2="525" stroke="#8997c0" stroke-width="4" />
<!-- Print Vertices -->
<circle cx="25" cy="25" r="5" fill="#0355ac" />
<circle cx="275" cy="25" r="5" fill="#f0bb49" />
<circle cx="525" cy="25" r="5" fill="#bf2bed" />
<circle cx="775" cy="25" r="5" fill="#4265c9" />
<circle cx="1025" cy="25" r="5" fill="#a3b786" />
<circle cx="25" cy="275" r="5" fill="#249afc" />
<circle cx="275" cy="275" r="5" fill="#7a438d" />
<circle cx="525" cy="275" r="5" fill="#706ead" />
<circle cx="775" cy="275" r="5" fill="#b6f90a" />
<circle cx="1025" cy="275" r="5" fill="#7f93ad" />
<circle cx="25" cy="525" r="5" fill="#51bde6" />
<circle cx="275" cy="525" r="5" fill="#d2c8e6" />
<circle cx="525" cy="525" r="5" fill="#ff09da" />
<circle cx="775" cy="525" r="5" fill="#cb3dc6" />
<circle cx="1025" cy="525" r="5" fill="#7ba0d3" />
<circle cx="25" cy="775" r="5" fill="#030c54" />
<circle cx="275" cy="775" r="5" fill="#c8367e" />
<circle cx="525" cy="775" r="5" fill="#1e4280" />
<circle cx="775" cy="775" r="5" fill="#bb5903" />
<circle cx="1025" cy="775" r="5" fill="#274191" />
<circle cx="25" cy="1025" r="5" fill="#344610" />
<circle cx="275" cy="1025" r="5" fill="#de61c3" />
<circle cx="525" cy="1025" r="5" fill="#c770c6" />
<circle cx="775" cy="1025" r="5" fill="#820a6c" />
<circle cx="1025" cy="1025" r="5" fill="#c9d826" />
</svg>
